<?xml version="1.0" encoding="utf-8"?>
<!-- Generator: Adobe Illustrator 26.3.1, SVG Export Plug-In . SVG Version: 6.00 Build 0)  -->
<svg version="1.1" id="レイヤー_1" xmlns="http://www.w3.org/2000/svg" xmlns:xlink="http://www.w3.org/1999/xlink" x="0px"
	 y="0px" viewBox="0 0 268 425" style="enable-background:new 0 0 268 425;" xml:space="preserve">
<style type="text/css">
	.st0{fill:#FFFFFF;}
</style>
<g>
	<g>
		<path class="st0" d="M260.8,352.7l-26.6-64c-9.5-22.8-39.6-27.7-54.8-9.4c-10.9,12.5-30.4,13.9-43.5,4.7
			c-29-21.4-55.3-81.5-49.4-118.7c1.1-16.5,17.5-28.7,34-27.6c23.7,2.2,41.5-22.6,32-45.5l-26.6-64c-8.2-16.6-27.7-24.6-43.6-18
			L38.9,28.5c-44,19.7-45.5,119.4-0.8,226.7s115.7,178.2,161.3,159.2l43.3-18C259.5,388,267.4,368.6,260.8,352.7z"/>
	</g>
</g>
</svg>
