<?xml version="1.0" encoding="utf-8"?>
<!-- Generator: Adobe Illustrator 26.0.3, SVG Export Plug-In . SVG Version: 6.00 Build 0)  -->
<svg version="1.1" id="レイヤー_1" xmlns="http://www.w3.org/2000/svg" xmlns:xlink="http://www.w3.org/1999/xlink" x="0px"
	 y="0px" viewBox="0 0 6.3 10.6" style="enable-background:new 0 0 6.3 10.6;" xml:space="preserve">
<style type="text/css">
	.st0{fill:#4AA6B4;}
</style>
<path class="st0" d="M6,4.6L1.7,0.3c-0.4-0.4-1-0.4-1.4,0C0.1,0.5,0,0.7,0,1c0,0.3,0.1,0.5,0.3,0.7l3.6,3.6L0.3,8.9
	C0.1,9.1,0,9.3,0,9.6c0,0.3,0.1,0.5,0.3,0.7c0.2,0.2,0.4,0.3,0.7,0.3c0.3,0,0.5-0.1,0.7-0.3L6,6c0.2-0.2,0.3-0.4,0.3-0.7
	C6.3,5,6.2,4.8,6,4.6z"/>
</svg>
