<?xml version="1.0" encoding="utf-8"?>
<!-- Generator: Adobe Illustrator 26.3.1, SVG Export Plug-In . SVG Version: 6.00 Build 0)  -->
<svg version="1.1" id="_x31_0" xmlns="http://www.w3.org/2000/svg" xmlns:xlink="http://www.w3.org/1999/xlink" x="0px" y="0px"
	 viewBox="0 0 450 450" style="enable-background:new 0 0 450 450;" xml:space="preserve">
<style type="text/css">
	.st0{fill:#FFFFFF;}
</style>
<path class="st0" d="M263.4,411.4c-1.9,0-3.8-0.2-5.6-0.5c-1.8-0.4-3.7-0.9-5.4-1.6c-3.6-1.5-6.9-3.6-9.7-6.5
	c-3.5-3.5-6-7.7-7.4-12.4c-0.8-2.7-1.2-5.5-1.2-8.4c0-2.8,0.4-5.7,1.2-8.4c0.5-1.8,1.3-3.6,2.1-5.3c1.4-2.6,3.1-5,5.3-7.1
	l106.7-106.7l-175.7-0.2H29.4C13.2,254.4,0,241.2,0,225c0-7.8,3.1-15.2,8.6-20.7c5.6-5.6,12.9-8.6,20.7-8.6c0,0,319.6,0,319.6,0
	l-74.7-75.2l-31.6-31.6c-3.5-3.5-6-7.7-7.4-12.4c-0.8-2.7-1.2-5.5-1.2-8.4c0-2.8,0.4-5.7,1.2-8.4c0.5-1.8,1.3-3.6,2.1-5.3
	c1.4-2.6,3.1-5,5.3-7.1c5.6-5.6,12.8-8.6,20.8-8.6c8,0,15.1,3,20.8,8.6l157.4,157.4c5.5,5.5,8.4,12.6,8.4,20.4
	c0,7.8-2.9,14.8-8.4,20.4L284.1,402.8c-4.2,4.2-9.4,7-15.1,8.1C267.2,411.2,265.3,411.4,263.4,411.4z"/>
</svg>
