<?xml version="1.0" encoding="utf-8"?>
<!-- Generator: Adobe Illustrator 26.3.1, SVG Export Plug-In . SVG Version: 6.00 Build 0)  -->
<svg version="1.1" id="_x32_" xmlns="http://www.w3.org/2000/svg" xmlns:xlink="http://www.w3.org/1999/xlink" x="0px" y="0px"
	 viewBox="0 0 535 535" style="enable-background:new 0 0 535 535;" xml:space="preserve">
<style type="text/css">
	.st0{fill:#333333;}
</style>
<g>
	<rect x="87.4" y="356.2" class="st0" width="178.3" height="39.8"/>
	<rect x="92.4" y="361.2" class="st0" width="168.3" height="29.8"/>
	<rect x="87.4" y="247.6" class="st0" width="246.4" height="39.8"/>
	<rect x="92.4" y="252.6" class="st0" width="236.4" height="29.8"/>
</g>
<rect x="227.8" y="131.2" class="st0" width="125.6" height="39.8"/>
<rect x="232.8" y="136.2" class="st0" width="115.6" height="29.8"/>
<path class="st0" d="M74.6,532.5c-30.6,0-55.6-24.9-55.6-55.6V180.4c0-16.1,6.3-31.2,17.6-42.5L154.5,20.1
	C165.9,8.8,181,2.5,197,2.5h188.9c30.6,0,55.6,24.9,55.6,55.5v124.6l-44.2,44.2V58c0-6.3-5.1-11.4-11.4-11.4H212.8v115.8
	c0,18.7-15.2,34-34,34H63.3v280.4c0,6.3,5.1,11.4,11.4,11.4h311.2c6.3,0,11.4-5.1,11.4-11.4V374.2l44.2-44.2v146.9
	c0,30.6-24.9,55.6-55.6,55.6H74.6z M164.8,155.2c6.3,0,6.7-0.4,6.7-6.7V65.6l-89.7,89.6H164.8z"/>
<path class="st0" d="M402.3,376.3v100.7c0,9-7.3,16.4-16.4,16.4H74.6c-9,0-16.4-7.3-16.4-16.4V191.5h120.6c16,0,29-13,29-29V41.7
	h178.1c9,0,16.4,7.3,16.4,16.4v156.7l34.2-34.2V58c0-27.9-22.7-50.5-50.6-50.5H197c-14.7,0-28.6,5.7-39,16.1L40.2,141.5
	c-10.4,10.4-16.2,24.3-16.2,39v296.5c0,27.9,22.7,50.6,50.6,50.6h311.2c27.9,0,50.6-22.7,50.6-50.6V342.1L402.3,376.3z M176.5,148.5
	c0,9.1-2.6,11.7-11.7,11.7h-95L176.5,53.5V148.5z"/>
<path class="st0" d="M507.3,218.2l-27.8-27.8c-4.8-4.8-12.7-4.8-17.5,0l-18,18l45.3,45.3l18-18C512.1,230.9,512.1,223.1,507.3,218.2
	z"/>
<polygon class="st0" points="276.4,376.1 261,436.8 321.6,421.4 "/>
<rect x="277.2" y="282.4" transform="matrix(0.7071 -0.7071 0.7071 0.7071 -110.042 363.1845)" class="st0" width="212.4" height="64"/>
</svg>
