<?xml version="1.0" encoding="utf-8"?>
<!-- Generator: Adobe Illustrator 27.4.1, SVG Export Plug-In . SVG Version: 6.00 Build 0)  -->
<svg version="1.1" id="_x32_" xmlns="http://www.w3.org/2000/svg" xmlns:xlink="http://www.w3.org/1999/xlink" x="0px" y="0px"
	 viewBox="0 0 506 506" style="enable-background:new 0 0 506 506;" xml:space="preserve">
<style type="text/css">
	.st0{fill:#FFFFFF;}
</style>
<g>
	<path class="st0" d="M253,499C117.4,499,7,388.6,7,253S117.4,7,253,7s246,110.4,246,246S388.6,499,253,499z M253,48
		C139.9,48,48,140,48,253c0,113.1,92,205,205,205c113.1,0,205-92,205-205C458,139.9,366.1,48,253,48z"/>
	<path class="st0" d="M174.6,351.6c-5.4,0-10.5-2.1-14.3-5.9s-5.9-8.9-5.9-14.3s2.1-10.5,5.9-14.3l74.9-74.9V136
		c0-11.1,9.1-20.2,20.2-20.2s20.2,9.1,20.2,20.2v123l-86.8,86.8C185.1,349.5,180,351.6,174.6,351.6z"/>
</g>
</svg>
