<?xml version="1.0" encoding="utf-8"?>
<!-- Generator: Adobe Illustrator 26.3.1, SVG Export Plug-In . SVG Version: 6.00 Build 0)  -->
<svg version="1.1" id="_x32_" xmlns="http://www.w3.org/2000/svg" xmlns:xlink="http://www.w3.org/1999/xlink" x="0px" y="0px"
	 viewBox="0 0 486.8 520" style="enable-background:new 0 0 486.8 520;" xml:space="preserve">
<style type="text/css">
	.st0{fill:#333333;}
</style>
<g>
	<rect x="68.3" y="353.7" class="st0" width="168.3" height="29.8"/>
	<rect x="68.3" y="245.1" class="st0" width="236.4" height="29.8"/>
</g>
<rect x="208.7" y="128.7" class="st0" width="115.6" height="29.8"/>
<path class="st0" d="M378.2,368.8v100.7c0,9-7.3,16.4-16.4,16.4H50.6c-9,0-16.4-7.3-16.4-16.4V184h120.6c16,0,29-13,29-29V34.2
	h178.1c9,0,16.4,7.3,16.4,16.4v156.7l34.2-34.2V50.5c0-27.9-22.7-50.5-50.6-50.5H172.9c-14.7,0-28.6,5.7-39,16.1L16.2,134
	C5.7,144.4,0,158.2,0,172.9v296.5C0,497.3,22.7,520,50.6,520h311.2c27.9,0,50.6-22.7,50.6-50.6V334.6L378.2,368.8z M152.4,141
	c0,9.1-2.6,11.7-11.7,11.7h-95L152.4,46V141z"/>
<path class="st0" d="M483.2,210.7L455.4,183c-4.8-4.8-12.7-4.8-17.5,0l-18,18l45.3,45.3l18-18C488,223.4,488,215.6,483.2,210.7z"/>
<polygon class="st0" points="252.3,368.6 236.9,429.3 297.6,413.9 "/>
<rect x="253.1" y="274.9" transform="matrix(0.7071 -0.7071 0.7071 0.7071 -111.7931 343.9571)" class="st0" width="212.4" height="64"/>
</svg>
