<?xml version="1.0" encoding="utf-8"?>
<!-- Generator: Adobe Illustrator 26.3.1, SVG Export Plug-In . SVG Version: 6.00 Build 0)  -->
<svg version="1.1" id="_x32_" xmlns="http://www.w3.org/2000/svg" xmlns:xlink="http://www.w3.org/1999/xlink" x="0px" y="0px"
	 viewBox="0 0 512 512" style="enable-background:new 0 0 512 512;" xml:space="preserve">
<style type="text/css">
	.st0{fill:#333333;stroke:#333333;stroke-miterlimit:10;}
</style>
<g>
	<path class="st0" d="M61.2,116.7c0,16.9-13.7,30.6-30.6,30.6C13.7,147.3,0,133.6,0,116.7s13.7-30.6,30.6-30.6
		C47.5,86.1,61.2,99.8,61.2,116.7z"/>
	<path class="st0" d="M512,116.7c0,16.9-13.7,30.6-30.6,30.6c-16.9,0-30.6-13.7-30.6-30.6s13.7-30.6,30.6-30.6
		C498.3,86.1,512,99.8,512,116.7z"/>
	<path class="st0" d="M286.6,65.4c0,16.9-13.7,30.6-30.6,30.6s-30.6-13.7-30.6-30.6c0-16.9,13.7-30.6,30.6-30.6
		S286.6,48.5,286.6,65.4z"/>
	<polygon class="st0" points="435.4,381.2 462.1,174.7 353.1,251.7 256,123.4 158.9,251.7 49.9,174.7 76.6,381.2 	"/>
	<polygon class="st0" points="80.8,413.2 89.1,477.2 256,477.2 422.9,477.2 431.2,413.2 	"/>
</g>
</svg>
