<?xml version="1.0" encoding="UTF-8"?>
<svg id="_レイヤー_2" data-name="レイヤー 2" xmlns="http://www.w3.org/2000/svg" viewBox="0 0 234.06 127.96">
  <defs>
    <style>
      .cls-1 {
        fill: #fff;
      }

      .cls-2 {
        fill: #ab9855;
      }
    </style>
  </defs>
  <g id="_レイヤー_1-2" data-name="レイヤー 1">
    <g>
      <g>
        <path class="cls-1" d="M27.69,118.79v6.78h-1.28v-6.78h-2.09v-1.08h5.45v1.08h-2.08Z"/>
        <path class="cls-1" d="M31.37,123.03c0-.37,.07-.72,.21-1.05,.14-.33,.34-.63,.61-.88,.26-.25,.56-.45,.9-.58,.34-.14,.7-.21,1.07-.21s.74,.07,1.08,.21c.34,.14,.64,.34,.91,.6,.27,.26,.47,.56,.61,.89s.21,.67,.21,1.04-.07,.73-.21,1.06c-.14,.33-.34,.62-.6,.88-.28,.27-.59,.47-.93,.61s-.7,.21-1.07,.21-.72-.07-1.06-.21-.64-.34-.91-.6c-.27-.27-.47-.56-.61-.89-.14-.33-.21-.68-.21-1.05Zm4.38,.01c0-.47-.15-.87-.46-1.2-.3-.33-.68-.49-1.12-.49s-.81,.16-1.11,.49c-.31,.33-.46,.73-.46,1.2s.15,.87,.46,1.2c.31,.33,.68,.49,1.11,.49s.81-.16,1.11-.49c.31-.33,.46-.73,.46-1.2Z"/>
        <path class="cls-1" d="M44.19,125.88l-1.18-2.65c-.09-.2-.16-.39-.22-.54s-.11-.32-.16-.47c-.08,.23-.15,.43-.21,.6-.06,.17-.11,.29-.15,.37l-1.21,2.69-2.64-5.4h1.24l1.14,2.46c.05,.1,.09,.25,.14,.43,.04,.18,.08,.38,.12,.6,0-.13,.02-.26,.06-.4,.04-.14,.11-.31,.2-.52l1.25-2.75h.1l1.27,2.75c.08,.17,.14,.33,.17,.48,.04,.15,.06,.29,.07,.44,.03-.19,.07-.38,.12-.55s.11-.33,.17-.47l1.12-2.46h1.23l-2.65,5.4Z"/>
        <path class="cls-1" d="M53.46,125.57h-1.17v-.66c-.21,.29-.45,.51-.73,.65-.28,.14-.6,.21-.95,.21-.72,0-1.29-.25-1.7-.74-.41-.49-.62-1.17-.62-2.02s.21-1.47,.63-1.97c.42-.5,.97-.75,1.65-.75,.42,0,.77,.09,1.07,.26,.29,.17,.51,.42,.65,.75v-.83h1.17v5.09Zm-1.13-2.56c0-.53-.12-.94-.37-1.23-.25-.29-.59-.44-1.03-.44s-.79,.15-1.04,.45c-.25,.3-.38,.72-.38,1.26s.12,.96,.37,1.25,.59,.44,1.03,.44c.42,0,.76-.16,1.02-.48,.26-.32,.4-.74,.4-1.26Z"/>
        <path class="cls-1" d="M57.33,121.29c.13-.34,.29-.58,.5-.75,.21-.16,.46-.24,.77-.24,.16,0,.33,.02,.49,.06,.16,.04,.32,.1,.47,.17l-.42,.99c-.1-.07-.21-.12-.33-.16-.12-.03-.25-.05-.39-.05-.39,0-.66,.16-.83,.46s-.25,.83-.25,1.56v2.23h-1.17v-5.1h1.17v.82Z"/>
        <path class="cls-1" d="M64.94,117.24h1.17v8.33h-1.17v-.66c-.21,.29-.45,.51-.73,.65-.28,.14-.6,.21-.95,.21-.72,0-1.29-.25-1.7-.74-.41-.49-.62-1.17-.62-2.02s.21-1.47,.63-1.97c.42-.5,.97-.75,1.65-.75,.42,0,.77,.09,1.07,.26,.29,.17,.51,.42,.65,.75v-4.07Zm.03,5.76c0-.53-.12-.94-.37-1.23-.25-.29-.59-.44-1.03-.44s-.79,.15-1.04,.45c-.25,.3-.38,.72-.38,1.26s.12,.96,.37,1.25,.59,.44,1.03,.44,.76-.16,1.03-.48c.26-.32,.39-.74,.39-1.26Z"/>
        <path class="cls-1" d="M68.23,124.65l.97-.53c.07,.25,.2,.45,.4,.58s.44,.2,.75,.2c.26,0,.47-.06,.62-.18,.15-.12,.22-.28,.22-.49,0-.28-.27-.51-.79-.71-.18-.06-.32-.12-.41-.16-.54-.23-.92-.46-1.14-.69-.22-.23-.33-.52-.33-.85,0-.46,.18-.82,.53-1.11,.36-.28,.83-.42,1.42-.42,.39,0,.73,.07,1.01,.22,.28,.15,.49,.35,.62,.62l-.83,.57c-.06-.16-.17-.29-.32-.38-.15-.09-.33-.14-.53-.14-.22,0-.4,.05-.53,.16-.13,.11-.2,.25-.2,.42,0,.26,.3,.51,.9,.72,.19,.07,.34,.12,.44,.17,.47,.19,.8,.4,1.01,.63,.2,.23,.3,.53,.3,.88,0,.51-.18,.91-.55,1.2s-.88,.43-1.53,.43c-.5,0-.91-.09-1.24-.28-.33-.19-.59-.47-.77-.85Z"/>
        <path class="cls-1" d="M79.3,125.57v-4.07h-.89v-1.02h.89v-1.93h1.17v1.93h.89v1.02h-.89v4.07h-1.17Z"/>
        <path class="cls-1" d="M83.46,125.57v-8.33h1.1v4.07c.23-.35,.51-.61,.82-.77s.7-.24,1.15-.24c.38,0,.7,.06,.97,.18,.27,.12,.48,.3,.63,.53,.09,.14,.15,.3,.19,.49,.04,.19,.06,.51,.06,.98v3.09h-1.18v-2.62c0-.67-.08-1.12-.24-1.33-.16-.22-.45-.33-.87-.33-.27,0-.51,.05-.73,.15-.21,.1-.38,.24-.5,.42-.09,.12-.15,.28-.18,.47-.03,.19-.05,.5-.05,.92v2.32h-1.17Z"/>
        <path class="cls-1" d="M95.93,123.2h-4.07c.03,.48,.17,.85,.42,1.11s.59,.4,1.02,.4c.38,0,.69-.08,.94-.24s.47-.41,.66-.76l.98,.55c-.29,.51-.64,.89-1.06,1.14-.42,.25-.92,.38-1.49,.38-.82,0-1.47-.25-1.95-.75s-.73-1.16-.73-1.99,.25-1.46,.75-1.97c.5-.51,1.14-.77,1.93-.77s1.46,.24,1.92,.7,.69,1.13,.69,1.97v.22Zm-1.21-.78c-.05-.37-.19-.64-.42-.83s-.55-.29-.96-.29c-.38,0-.69,.09-.92,.28-.23,.19-.4,.47-.49,.84h2.79Z"/>
        <path class="cls-1" d="M102.76,125.57v-8.17l5,4.81c.14,.14,.27,.28,.41,.43s.29,.33,.44,.52v-5.45h1.18v8.17l-5.1-4.89c-.14-.13-.27-.27-.39-.42-.13-.15-.25-.3-.36-.46v5.47h-1.18Z"/>
        <path class="cls-1" d="M117.5,123.2h-4.07c.03,.48,.17,.85,.42,1.11s.59,.4,1.02,.4c.38,0,.69-.08,.94-.24s.47-.41,.66-.76l.98,.55c-.29,.51-.64,.89-1.06,1.14-.42,.25-.92,.38-1.49,.38-.82,0-1.47-.25-1.95-.75s-.73-1.16-.73-1.99,.25-1.46,.75-1.97c.5-.51,1.14-.77,1.93-.77s1.46,.24,1.92,.7,.69,1.13,.69,1.97v.22Zm-1.21-.78c-.05-.37-.19-.64-.42-.83s-.55-.29-.96-.29c-.38,0-.69,.09-.92,.28-.23,.19-.4,.47-.49,.84h2.79Z"/>
        <path class="cls-1" d="M120.16,125.57h-1.29l1.93-2.74-1.65-2.35h1.28l.71,1.05c.08,.11,.14,.21,.2,.31s.11,.2,.16,.31c.04-.09,.09-.18,.15-.27,.06-.09,.13-.21,.21-.36l.71-1.04h1.27l-1.65,2.36,1.91,2.73h-1.27l-.95-1.34s-.02-.04-.04-.06c-.18-.28-.3-.49-.35-.63-.07,.14-.14,.26-.21,.38-.07,.12-.13,.22-.2,.33l-.92,1.33Z"/>
        <path class="cls-1" d="M126.17,125.57v-4.07h-.89v-1.02h.89v-1.93h1.17v1.93h.89v1.02h-.89v4.07h-1.17Z"/>
        <path class="cls-1" d="M134.85,125.57v-7.86h4.39v1.08h-3.11v1.97h3.11v1.12h-3.11v2.54h3.11v1.14h-4.39Z"/>
        <path class="cls-1" d="M142.87,121.29c.13-.34,.29-.58,.5-.75,.21-.16,.46-.24,.77-.24,.16,0,.33,.02,.49,.06,.16,.04,.32,.1,.47,.17l-.42,.99c-.1-.07-.21-.12-.33-.16-.12-.03-.25-.05-.39-.05-.39,0-.66,.16-.83,.46s-.25,.83-.25,1.56v2.23h-1.17v-5.1h1.17v.82Z"/>
        <path class="cls-1" d="M151.65,125.57h-1.17v-.66c-.21,.29-.45,.51-.73,.65-.28,.14-.6,.21-.95,.21-.72,0-1.29-.25-1.7-.74-.41-.49-.62-1.17-.62-2.02s.21-1.47,.63-1.97c.42-.5,.97-.75,1.65-.75,.42,0,.77,.09,1.07,.26,.29,.17,.51,.42,.65,.75v-.83h1.17v5.09Zm-1.13-2.56c0-.53-.12-.94-.37-1.23-.25-.29-.59-.44-1.03-.44s-.79,.15-1.04,.45c-.25,.3-.38,.72-.38,1.26s.12,.96,.37,1.25c.24,.29,.59,.44,1.03,.44,.42,0,.76-.16,1.02-.48,.26-.32,.4-.74,.4-1.26Z"/>
        <path class="cls-1" d="M159.05,125.57v-4.07h-.89v-1.02h.89v-1.93h1.17v1.93h.89v1.02h-.89v4.07h-1.17Z"/>
        <path class="cls-1" d="M162.84,123.03c0-.37,.07-.72,.21-1.05,.14-.33,.34-.63,.61-.88,.26-.25,.56-.45,.9-.58,.34-.14,.7-.21,1.07-.21s.74,.07,1.08,.21c.34,.14,.64,.34,.91,.6,.27,.26,.47,.56,.61,.89s.21,.67,.21,1.04-.07,.73-.21,1.06c-.14,.33-.34,.62-.6,.88-.28,.27-.59,.47-.93,.61s-.7,.21-1.07,.21-.72-.07-1.06-.21-.64-.34-.91-.6c-.27-.27-.47-.56-.61-.89-.14-.33-.21-.68-.21-1.05Zm4.38,.01c0-.47-.15-.87-.46-1.2-.3-.33-.68-.49-1.12-.49s-.81,.16-1.11,.49c-.31,.33-.46,.73-.46,1.2s.15,.87,.46,1.2c.31,.33,.68,.49,1.11,.49s.81-.16,1.11-.49c.31-.33,.46-.73,.46-1.2Z"/>
        <path class="cls-1" d="M175.57,125.25c0,1-.2,1.7-.6,2.1s-1.07,.61-2.01,.61c-.7,0-1.26-.15-1.68-.44-.42-.29-.63-.69-.64-1.18h1.25c.02,.21,.12,.38,.31,.49s.45,.17,.78,.17c.5,0,.86-.11,1.07-.33,.22-.22,.33-.58,.33-1.1v-.68c-.2,.29-.44,.51-.72,.65-.28,.14-.6,.21-.95,.21-.72,0-1.29-.25-1.7-.74-.41-.49-.62-1.17-.62-2.02s.21-1.47,.63-1.97c.42-.5,.97-.75,1.65-.75,.42,0,.77,.09,1.07,.26,.29,.17,.51,.42,.65,.75v-.83h1.17v4.78Zm-1.13-2.25c0-.53-.12-.94-.37-1.23-.25-.29-.59-.44-1.03-.44s-.79,.15-1.04,.45c-.25,.3-.38,.72-.38,1.26s.12,.96,.37,1.25,.59,.44,1.03,.44c.42,0,.76-.16,1.02-.48,.26-.32,.4-.74,.4-1.26Z"/>
        <path class="cls-1" d="M183.19,123.2h-4.07c.03,.48,.17,.85,.42,1.11s.59,.4,1.02,.4c.38,0,.69-.08,.94-.24s.47-.41,.66-.76l.98,.55c-.29,.51-.64,.89-1.06,1.14-.42,.25-.92,.38-1.49,.38-.82,0-1.47-.25-1.95-.75s-.73-1.16-.73-1.99,.25-1.46,.75-1.97c.5-.51,1.14-.77,1.93-.77s1.46,.24,1.92,.7,.69,1.13,.69,1.97v.22Zm-1.21-.78c-.05-.37-.19-.64-.42-.83s-.55-.29-.96-.29c-.38,0-.69,.09-.92,.28-.23,.19-.4,.47-.49,.84h2.79Z"/>
        <path class="cls-1" d="M185.78,125.57v-4.07h-.89v-1.02h.89v-1.93h1.17v1.93h.89v1.02h-.89v4.07h-1.17Z"/>
        <path class="cls-1" d="M189.94,125.57v-8.33h1.1v4.07c.23-.35,.51-.61,.82-.77s.7-.24,1.15-.24c.38,0,.7,.06,.97,.18,.27,.12,.48,.3,.63,.53,.09,.14,.15,.3,.19,.49,.04,.19,.06,.51,.06,.98v3.09h-1.18v-2.62c0-.67-.08-1.12-.24-1.33-.16-.22-.45-.33-.87-.33-.27,0-.51,.05-.73,.15-.21,.1-.38,.24-.5,.42-.09,.12-.15,.28-.18,.47-.03,.19-.05,.5-.05,.92v2.32h-1.17Z"/>
        <path class="cls-1" d="M202.41,123.2h-4.07c.03,.48,.17,.85,.42,1.11s.59,.4,1.02,.4c.38,0,.69-.08,.94-.24s.47-.41,.66-.76l.98,.55c-.29,.51-.64,.89-1.06,1.14-.42,.25-.92,.38-1.49,.38-.82,0-1.47-.25-1.95-.75s-.73-1.16-.73-1.99,.25-1.46,.75-1.97c.5-.51,1.14-.77,1.93-.77s1.46,.24,1.92,.7,.69,1.13,.69,1.97v.22Zm-1.21-.78c-.05-.37-.19-.64-.42-.83s-.55-.29-.96-.29c-.38,0-.69,.09-.92,.28-.23,.19-.4,.47-.49,.84h2.79Z"/>
        <path class="cls-1" d="M205.89,121.29c.13-.34,.29-.58,.5-.75,.21-.16,.46-.24,.77-.24,.16,0,.33,.02,.49,.06,.16,.04,.32,.1,.47,.17l-.42,.99c-.1-.07-.21-.12-.33-.16-.12-.03-.25-.05-.39-.05-.39,0-.66,.16-.83,.46s-.25,.83-.25,1.56v2.23h-1.17v-5.1h1.17v.82Z"/>
      </g>
      <g>
        <polygon class="cls-2" points="130.77 21.69 121.99 21.69 130.77 30.47 130.77 21.69"/>
        <polygon class="cls-2" points="130.77 41.63 121.99 50.41 130.77 50.41 130.77 41.63"/>
        <polygon class="cls-2" points="102.06 50.41 110.84 50.41 102.06 41.63 102.06 50.41"/>
        <polygon class="cls-2" points="102.06 21.69 102.06 30.47 110.84 21.69 102.06 21.69"/>
        <polygon class="cls-2" points="116.42 15.75 125.87 6.3 125.87 0 116.42 9.45 106.96 0 106.96 6.3 116.42 15.75"/>
        <polygon class="cls-2" points="116.42 56.35 106.96 65.8 106.96 72.1 116.42 62.65 125.87 72.1 125.87 65.8 116.42 56.35"/>
        <polygon class="cls-2" points="105.51 25.15 105.51 12.55 101.32 8.35 101.32 20.95 88.72 20.95 92.91 25.15 105.51 25.15"/>
        <polygon class="cls-2" points="127.32 46.95 127.32 59.55 131.52 63.75 131.52 51.15 144.12 51.15 139.92 46.95 127.32 46.95"/>
        <polygon class="cls-2" points="96.11 36.05 86.66 26.6 80.37 26.6 89.82 36.05 80.37 45.5 86.66 45.5 96.11 36.05"/>
        <polygon class="cls-2" points="136.72 36.05 146.17 45.5 152.47 45.5 143.01 36.05 152.47 26.6 146.17 26.6 136.72 36.05"/>
        <polygon class="cls-2" points="105.51 46.95 92.91 46.95 88.72 51.15 101.32 51.15 101.32 63.75 105.51 59.55 105.51 46.95"/>
        <polygon class="cls-2" points="127.32 25.15 139.92 25.15 144.12 20.95 131.52 20.95 131.52 8.35 127.32 12.55 127.32 25.15"/>
        <polygon class="cls-2" points="126.05 33.08 118.51 40.62 118.51 25.55 116.42 23.45 103.82 36.05 106.78 39.02 114.32 31.48 114.32 46.55 116.42 48.65 116.42 48.65 129.02 36.05 126.05 33.08"/>
      </g>
      <g>
        <path class="cls-1" d="M0,105.61v-20.3l12.4,11.94c.34,.34,.68,.7,1.03,1.08,.35,.38,.71,.81,1.09,1.29v-13.54h2.93v20.29l-12.66-12.15c-.34-.33-.66-.68-.98-1.04-.32-.36-.62-.75-.9-1.15v13.58H0Z"/>
        <path class="cls-1" d="M22.49,105.61v-19.53h10.9v2.69h-7.72v4.9h7.72v2.79h-7.72v6.31h7.72v2.84h-10.9Z"/>
        <path class="cls-1" d="M36.97,105.61l6.34-10.22-5.6-9.31h3.33l2.81,4.77c.15,.25,.43,.76,.84,1.55,.09,.18,.16,.31,.2,.39,.14-.28,.3-.57,.47-.88s.37-.65,.59-1.03l2.97-4.8h3.25l-5.71,9.26,6.15,10.27h-3.51l-3.27-5.54s-.03-.05-.05-.09c-.36-.67-.68-1.29-.99-1.88-.15,.3-.32,.62-.49,.94-.18,.32-.37,.66-.57,.99l-3.41,5.58h-3.36Z"/>
        <path class="cls-1" d="M63.87,88.77v16.83h-3.17v-16.83h-5.19v-2.69h13.52v2.69h-5.16Z"/>
        <path class="cls-1" d="M94.82,90.83c-.9-.76-1.85-1.34-2.85-1.72-1-.38-2.05-.57-3.15-.57-2.13,0-3.87,.68-5.21,2.05-1.34,1.37-2.01,3.14-2.01,5.32s.65,3.85,1.95,5.21c1.3,1.37,2.95,2.05,4.93,2.05,1.16,0,2.26-.2,3.3-.61,1.04-.41,2.05-1.03,3.01-1.85v3.59c-.85,.61-1.78,1.07-2.79,1.37-1,.3-2.09,.45-3.27,.45-1.49,0-2.87-.25-4.14-.73-1.27-.49-2.38-1.21-3.34-2.16-.95-.93-1.68-2.03-2.19-3.3-.51-1.27-.77-2.62-.77-4.05s.26-2.78,.77-4.04c.51-1.26,1.25-2.36,2.22-3.31,.97-.96,2.08-1.69,3.33-2.18,1.25-.49,2.61-.74,4.07-.74,1.15,0,2.24,.17,3.28,.5,1.04,.33,2.05,.84,3.03,1.51l-.17,3.2Z"/>
        <path class="cls-1" d="M99.3,105.61v-19.53h3.17v16.68h7.1v2.84h-10.27Z"/>
        <path class="cls-1" d="M112.61,86.08h3.13v11.86c0,1.76,.41,3.08,1.22,3.97s2.03,1.33,3.65,1.33,2.82-.44,3.63-1.33,1.22-2.21,1.22-3.97v-11.86h3.17v12.15c0,2.64-.67,4.62-2,5.93-1.33,1.31-3.34,1.97-6.03,1.97s-4.69-.65-6.02-1.96c-1.33-1.31-1.99-3.29-1.99-5.94v-12.15Z"/>
        <path class="cls-1" d="M133.02,105.61v-19.53h4.92c1.4,0,2.44,.08,3.11,.23s1.24,.4,1.71,.75c.6,.44,1.07,1.03,1.41,1.75,.33,.72,.5,1.52,.5,2.39,0,1.04-.24,1.91-.72,2.61-.48,.7-1.18,1.19-2.09,1.46,1.14,.18,2.03,.7,2.69,1.55,.65,.86,.98,1.94,.98,3.25,0,.79-.14,1.54-.41,2.25-.28,.71-.67,1.32-1.17,1.81-.53,.54-1.2,.92-1.99,1.15-.79,.22-2.12,.33-3.99,.33h-4.95Zm3.11-11.28h1.21c1.51,0,2.58-.21,3.21-.62,.63-.41,.94-1.11,.94-2.09,0-1.07-.29-1.82-.87-2.25-.58-.43-1.67-.65-3.28-.65h-1.21v5.6Zm0,8.63h1.09c1.11,0,1.94-.04,2.49-.13s.99-.25,1.31-.47c.39-.26,.69-.6,.91-1.04,.21-.44,.32-.92,.32-1.44,0-.62-.13-1.16-.39-1.63-.26-.46-.63-.82-1.11-1.08-.3-.15-.65-.26-1.03-.33-.39-.07-.9-.11-1.54-.11h-2.05v6.23Z"/>
        <path class="cls-2" d="M175.36,95.88c0,1.39-.25,2.7-.74,3.93-.49,1.24-1.21,2.34-2.16,3.31-.95,.97-2.03,1.71-3.23,2.23-1.2,.51-2.46,.77-3.78,.77s-2.61-.26-3.82-.78c-1.21-.52-2.28-1.26-3.21-2.22-.95-.97-1.66-2.07-2.15-3.29-.49-1.23-.73-2.54-.73-3.95s.24-2.71,.73-3.95c.49-1.24,1.21-2.34,2.15-3.32,.95-.97,2.02-1.71,3.22-2.21s2.47-.76,3.81-.76,2.6,.25,3.79,.76c1.19,.51,2.27,1.25,3.21,2.21,.95,.99,1.67,2.1,2.16,3.34s.74,2.55,.74,3.93Zm-3.14,0c0-.99-.17-1.92-.51-2.81-.34-.89-.83-1.68-1.48-2.37-.63-.68-1.35-1.21-2.17-1.58-.82-.37-1.69-.55-2.6-.55s-1.78,.18-2.6,.55c-.82,.36-1.56,.89-2.2,1.59-.64,.68-1.13,1.47-1.47,2.36-.34,.89-.51,1.83-.51,2.83s.17,1.92,.51,2.8c.34,.88,.83,1.67,1.47,2.36s1.37,1.22,2.19,1.59c.82,.37,1.69,.55,2.61,.55s1.76-.18,2.58-.55c.82-.36,1.55-.89,2.2-1.59,.64-.69,1.13-1.48,1.48-2.37,.34-.88,.51-1.82,.51-2.79Z"/>
        <path class="cls-2" d="M178.17,105.61v-12.64h2.72v2.07c.58-.87,1.26-1.51,2.04-1.91,.78-.4,1.73-.6,2.85-.6,.94,0,1.75,.15,2.41,.45,.66,.3,1.18,.74,1.55,1.33,.22,.35,.38,.75,.48,1.21,.1,.46,.15,1.27,.15,2.43v7.67h-2.92v-6.5c0-1.66-.2-2.77-.61-3.31-.4-.55-1.12-.82-2.15-.82-.68,0-1.28,.12-1.81,.37-.53,.25-.94,.6-1.25,1.05-.21,.3-.36,.69-.45,1.17-.08,.48-.13,1.23-.13,2.27v5.76h-2.89Z"/>
        <path class="cls-2" d="M193.82,105.61v-20.67h2.89v20.67h-2.89Z"/>
        <path class="cls-2" d="M199.5,87.49c0-.49,.18-.91,.54-1.27,.36-.36,.79-.53,1.29-.53s.94,.17,1.29,.51c.34,.34,.51,.77,.51,1.29s-.17,.95-.52,1.3c-.35,.35-.77,.53-1.28,.53s-.93-.18-1.29-.54c-.36-.36-.54-.79-.54-1.29Zm.39,18.11v-12.64h2.89v12.64h-2.89Z"/>
        <path class="cls-2" d="M206.37,105.61v-12.64h2.72v2.07c.58-.87,1.26-1.51,2.04-1.91,.78-.4,1.73-.6,2.85-.6,.94,0,1.75,.15,2.41,.45,.66,.3,1.18,.74,1.55,1.33,.22,.35,.38,.75,.48,1.21,.1,.46,.15,1.27,.15,2.43v7.67h-2.92v-6.5c0-1.66-.2-2.77-.61-3.31-.4-.55-1.12-.82-2.15-.82-.68,0-1.28,.12-1.81,.37-.53,.25-.94,.6-1.25,1.05-.21,.3-.36,.69-.45,1.17-.08,.48-.13,1.23-.13,2.27v5.76h-2.89Z"/>
        <path class="cls-2" d="M234.06,99.71h-10.11c.07,1.18,.42,2.11,1.05,2.77,.63,.66,1.47,.99,2.52,.99,.93,0,1.71-.2,2.33-.59,.62-.39,1.17-1.02,1.63-1.89l2.44,1.36c-.71,1.27-1.59,2.22-2.64,2.84-1.05,.62-2.28,.93-3.69,.93-2.03,0-3.64-.62-4.84-1.85-1.2-1.24-1.8-2.88-1.8-4.95s.62-3.61,1.86-4.89c1.24-1.28,2.83-1.91,4.78-1.91s3.62,.58,4.76,1.75c1.14,1.17,1.71,2.8,1.71,4.89v.55Zm-3-1.95c-.12-.91-.46-1.6-1.04-2.07s-1.37-.71-2.37-.71c-.95,0-1.72,.23-2.29,.69-.58,.46-.98,1.16-1.21,2.09h6.92Z"/>
      </g>
    </g>
  </g>
</svg>